<?xml version="1.0" standalone="no"?>
<!DOCTYPE svg PUBLIC "-//W3C//DTD SVG 20010904//EN"
 "http://www.w3.org/TR/2001/REC-SVG-20010904/DTD/svg10.dtd">
<svg version="1.0" xmlns="http://www.w3.org/2000/svg"
 width="1084.000000pt" height="1084.000000pt" viewBox="0 0 1084.000000 1084.000000"
 preserveAspectRatio="xMidYMid meet">
<metadata>
Created by potrace 1.11, written by Peter Selinger 2001-2013
</metadata>
<g transform="translate(0.000000,1084.000000) scale(0.100000,-0.100000)"
fill="#000000" stroke="none">
<path d="M5264 10431 c-442 -314 -915 -694 -1223 -985 -363 -341 -699 -761
-968 -1211 -175 -291 -183 -316 -130 -421 80 -159 479 -887 503 -919 14 -19
23 -38 20 -44 -15 -23 -161 -73 -232 -78 -176 -14 -262 84 -384 432 -78 223
-159 372 -219 405 -10 5 -81 16 -157 25 -76 8 -181 25 -233 36 -54 12 -112 19
-136 17 -115 -13 -367 -259 -454 -441 -37 -80 -67 -189 -82 -305 -21 -156 8
-451 57 -579 22 -60 23 -74 18 -181 -7 -115 -6 -119 30 -239 25 -79 38 -146
40 -192 2 -39 6 -75 10 -78 4 -4 107 43 230 104 223 112 223 112 229 148 7 45
-3 101 -39 220 -23 75 -28 111 -29 215 -2 69 -3 132 -4 141 0 9 -25 52 -55 95
-112 166 -152 274 -143 394 6 83 25 146 62 202 33 50 291 258 320 258 9 0 107
-212 135 -290 12 -36 51 -124 86 -196 57 -119 69 -137 131 -193 78 -70 174
-124 254 -141 41 -9 131 -11 320 -8 l264 6 157 40 c87 23 168 47 180 53 29 15
86 14 328 -5 697 -56 1162 -73 1582 -57 308 11 753 39 1058 65 125 11 164 11
200 1 25 -7 102 -29 172 -48 70 -20 170 -41 222 -46 121 -14 497 -14 556 0 79
18 169 70 245 141 85 79 125 149 209 365 70 177 135 313 151 313 18 0 266
-201 303 -245 79 -97 95 -282 35 -423 -18 -40 -61 -117 -97 -171 l-66 -98 1
-114 c1 -115 -13 -207 -46 -299 -23 -64 -32 -185 -14 -206 18 -22 429 -226
444 -220 8 3 14 36 18 93 3 56 15 115 31 161 40 116 49 180 36 273 -11 78 -10
84 19 167 45 133 75 382 61 521 -30 304 -132 498 -364 695 -124 105 -182 124
-287 92 -41 -13 -148 -28 -353 -52 -53 -6 -64 -11 -102 -50 -54 -56 -118 -188
-184 -379 -62 -180 -119 -292 -181 -356 -55 -57 -105 -73 -199 -66 -64 5 -187
44 -224 72 -18 13 -17 15 11 52 17 21 143 247 282 503 215 398 251 471 251
507 0 115 -362 679 -685 1068 -270 325 -572 612 -1034 980 -323 257 -756 575
-784 575 -8 0 -77 -44 -153 -99z m-3222 -2891 c44 -12 88 -61 88 -97 0 -37
-33 -84 -96 -138 -120 -103 -164 -195 -166 -346 0 -68 5 -97 26 -153 28 -73
77 -160 138 -243 60 -82 54 -95 -77 -189 -138 -98 -207 -117 -261 -71 -22 19
-31 42 -50 133 -56 265 -54 511 6 698 41 126 91 206 191 308 76 76 109 99 159
107 3 1 22 -4 42 -9z m6871 -28 c57 -39 151 -143 196 -219 123 -209 149 -480
80 -843 -19 -96 -27 -119 -50 -142 -50 -50 -112 -37 -241 50 -97 65 -138 105
-138 133 0 12 17 45 38 73 59 80 110 168 137 240 30 81 34 211 9 297 -18 62
-78 144 -143 197 -100 83 -126 154 -72 206 54 51 116 54 184 8z m-2833 -472
c479 -16 832 -42 1030 -76 118 -20 154 -31 182 -53 20 -18 21 -21 8 -34 -142
-137 -2176 -193 -3295 -91 -199 18 -376 46 -434 70 -57 23 -54 52 9 75 238 88
1492 143 2500 109z m-2435 -248 c127 -43 20 -84 -264 -99 -145 -7 -157 4 -46
42 39 13 95 35 125 48 65 30 117 32 185 9z m3730 -15 c44 -19 104 -42 133 -51
28 -10 52 -22 52 -28 0 -14 -212 -4 -334 16 -129 22 -144 46 -50 80 63 23 112
19 199 -17z m-5293 -406 c-6 -57 14 -169 49 -277 29 -90 35 -161 14 -157 -5 1
-29 73 -52 160 -36 131 -43 169 -40 224 2 37 7 71 11 78 14 22 21 10 18 -28z
m6689 8 c16 -56 7 -130 -34 -282 -24 -87 -47 -158 -52 -158 -21 1 -14 70 15
161 36 111 54 218 47 272 -6 44 13 49 24 7z m-6737 -69 c3 -43 18 -119 32
-167 47 -159 55 -194 52 -231 -2 -29 -7 -37 -22 -37 -14 0 -24 14 -38 50 l-18
50 5 -51 c3 -28 3 -59 -1 -68 -9 -24 -44 -21 -44 4 0 11 -16 69 -36 128 -42
126 -58 291 -31 326 22 30 33 12 35 -56 2 -65 29 -187 56 -248 22 -50 20 -37
-14 91 -16 63 -30 135 -30 161 0 47 25 128 40 128 4 0 10 -36 14 -80z m6802
35 c24 -63 15 -138 -38 -320 -37 -129 -46 -150 -63 -150 -33 0 -30 64 9 200
39 134 56 220 56 277 0 51 15 48 36 -7z m65 -37 c21 -39 5 -201 -29 -298 -17
-47 -33 -102 -37 -123 -8 -41 -31 -59 -46 -36 -14 22 1 115 33 209 21 60 31
112 35 178 6 96 19 117 44 70z m-6956 -295 c39 -114 45 -198 15 -198 -8 0 -16
9 -18 20 -2 11 -21 74 -44 140 -49 145 -60 240 -32 282 l18 28 13 -83 c7 -45
29 -130 48 -189z m7032 152 c-3 -45 -19 -111 -45 -187 -22 -64 -42 -127 -44
-140 -2 -13 -10 -23 -18 -23 -30 0 -24 84 15 199 19 59 41 143 47 188 l12 81
19 -24 c16 -20 19 -35 14 -94z m-7140 28 c0 -65 7 -99 41 -201 43 -125 52
-188 30 -210 -20 -20 -26 -14 -33 31 -4 23 -19 83 -35 132 -52 167 -62 271
-30 310 22 27 26 16 27 -62z m7191 46 c20 -37 8 -138 -31 -269 -19 -63 -38
-134 -42 -157 -7 -45 -13 -51 -33 -31 -22 22 -12 92 29 213 35 100 42 133 42
198 1 80 10 93 35 46z m-7305 -56 c-4 -34 5 -96 31 -215 36 -168 45 -248 26
-248 -5 0 -12 12 -16 28 -3 15 -12 52 -20 82 -64 262 -75 400 -30 400 12 0 14
-10 9 -47z m53 22 c-8 -31 17 -154 55 -268 34 -103 37 -157 10 -181 -23 -21
-26 -16 -36 49 -4 28 -20 107 -36 177 -37 162 -38 248 -2 248 11 0 13 -7 9
-25z m7308 3 c11 -44 6 -101 -23 -226 -16 -70 -32 -149 -36 -177 -10 -65 -13
-70 -36 -49 -28 25 -24 76 16 203 38 123 57 218 48 250 -4 14 -1 21 10 21 8 0
17 -10 21 -22z m56 -3 c10 -26 1 -127 -20 -220 -36 -164 -63 -265 -71 -265
-17 0 -9 79 27 247 25 118 34 182 30 216 -4 37 -2 47 10 47 8 0 19 -11 24 -25z"/>
<path d="M2480 5701 c0 -662 3 -879 15 -1027 70 -861 320 -1695 710 -2369 423
-731 1078 -1379 1820 -1800 142 -81 325 -169 383 -185 55 -14 95 -3 247 69
170 81 311 163 525 306 822 549 1448 1317 1818 2232 223 551 364 1160 412
1782 6 78 10 495 10 983 l0 848 -2970 0 -2970 0 0 -839z m3045 -161 c52 -382
97 -705 100 -717 8 -35 -12 -27 -31 12 -20 43 -55 69 -112 84 -74 21 -163 -20
-191 -87 -14 -32 -71 -61 -71 -35 0 20 187 1387 196 1433 4 19 9 28 11 20 1
-8 46 -328 98 -710z m632 -714 c-90 -252 -159 -455 -153 -453 79 30 910 306
912 304 2 -2 -126 -118 -284 -257 -242 -212 -296 -255 -333 -265 -54 -13 -100
-44 -119 -79 l-13 -26 -225 0 -226 0 -33 36 -33 37 0 173 0 174 39 36 c46 41
66 90 58 146 l-5 41 286 297 c158 163 288 296 290 295 2 -2 -71 -208 -161
-459z m-1318 142 c249 -258 301 -317 301 -341 0 -43 24 -89 64 -124 l36 -32 0
-174 0 -174 -34 -37 -35 -36 -222 0 -221 0 -40 45 c-40 46 -83 65 -145 65 -28
0 -72 36 -323 256 -160 141 -289 258 -287 260 2 2 209 -66 461 -151 365 -124
457 -152 453 -138 -2 10 -75 213 -161 451 -160 444 -159 442 -152 442 3 0 140
-141 305 -312z m-463 -952 c-10 -6 -32 -22 -49 -36 -82 -67 -75 -209 14 -267
48 -32 64 -46 53 -50 -5 -1 -310 40 -679 91 -368 52 -668 95 -665 96 23 7
1336 185 1340 182 3 -2 -3 -9 -14 -16z m2779 -76 c330 -44 608 -84 618 -88 11
-4 -264 -46 -627 -96 -356 -49 -649 -86 -652 -83 -3 3 7 12 23 20 63 33 103
97 103 164 0 62 -32 110 -106 161 -17 12 -16 12 11 8 17 -2 300 -41 630 -86z
m-1942 -318 l27 -28 -1 -370 -1 -369 -17 107 c-9 59 -18 109 -21 112 -3 3
-142 -143 -310 -324 -167 -182 -305 -329 -306 -327 -2 2 57 198 131 437 74
239 135 437 135 441 0 4 -205 -63 -456 -147 -252 -85 -459 -153 -461 -151 -2
2 134 125 302 273 281 247 310 270 351 276 49 7 109 46 119 78 6 19 15 20 244
20 l237 0 27 -28z m980 -8 c16 -19 51 -45 77 -57 32 -14 153 -114 349 -286
165 -146 299 -266 298 -268 -2 -1 -211 67 -464 151 l-461 154 14 -42 c7 -22
68 -216 134 -431 66 -214 123 -396 125 -402 2 -7 3 -13 0 -13 -2 0 -141 149
-309 330 l-306 331 0 256 0 257 27 28 27 28 230 0 231 0 28 -36z m-787 -1383
c27 -7 51 -7 74 -1 18 5 36 7 39 5 2 -3 -17 -167 -44 -365 -27 -197 -51 -358
-52 -356 -4 4 -103 715 -103 740 0 17 2 17 23 3 13 -8 42 -20 63 -26z m-366
-1073 c0 -101 4 -188 8 -195 4 -7 19 -16 32 -22 19 -7 -3 -10 -85 -9 -60 0
-101 3 -90 5 43 11 45 20 45 173 0 157 -3 165 -49 153 -12 -3 -21 -1 -21 3 0
9 126 71 148 73 9 1 12 -42 12 -181z m331 155 c41 -35 59 -79 59 -145 0 -127
-97 -232 -223 -244 l-52 -4 45 20 c52 25 86 54 106 92 21 40 18 48 -16 42 -39
-8 -84 11 -107 45 -23 35 -23 117 1 157 41 68 129 86 187 37z m629 -103 c0
-123 1 -130 20 -130 16 0 20 -7 20 -30 0 -23 -4 -30 -20 -30 -17 0 -20 -7 -20
-45 l0 -45 -45 0 -45 0 0 45 0 45 -70 0 -70 0 0 33 c0 45 174 286 208 287 22
0 22 -2 22 -130z m-270 110 c0 -6 -7 -24 -15 -40 -15 -29 -17 -30 -95 -30 -64
0 -80 -3 -80 -15 0 -8 12 -17 28 -21 111 -23 162 -69 162 -146 0 -87 -68 -148
-166 -148 -63 0 -100 24 -90 58 9 28 48 29 87 1 43 -30 77 -29 102 3 20 27 20
29 4 64 -20 40 -71 67 -149 79 -27 3 -48 7 -48 9 0 1 14 40 30 87 17 46 33 90
35 97 6 16 195 17 195 2z"/>
<path d="M5259 1283 c-13 -34 -3 -119 17 -150 20 -31 50 -30 58 3 15 60 -15
174 -45 174 -12 0 -24 -11 -30 -27z"/>
<path d="M5857 1155 c-26 -36 -47 -67 -47 -70 0 -3 23 -5 50 -5 l50 0 0 70 c0
39 -1 70 -3 70 -2 0 -24 -29 -50 -65z"/>
</g>
</svg>
